<svg width="120" height="120" viewBox="0 0 120 120" fill="none" xmlns="http://www.w3.org/2000/svg">
<path d="M67.5691 95.0523C71.3691 95.0523 72.8191 96.8856 74.3191 97.8023L62.1242 97.8023C61.7024 97.8023 61.4847 97.3242 61.8002 97.0442C62.832 96.1286 64.6575 95.0523 67.5691 95.0523Z" fill="#E2E8F0"/>
<path d="M74.3191 83.5523L74.3191 97.8023M74.3191 97.8023C72.8191 96.8856 71.3691 95.0523 67.5691 95.0523C64.6575 95.0523 62.832 96.1286 61.8002 97.0442C61.4847 97.3242 61.7024 97.8023 62.1242 97.8023L74.3191 97.8023Z" stroke="#E2E8F0" stroke-width="2"/>
<path d="M47.0691 95.0523C50.8691 95.0523 52.3191 96.8856 53.8191 97.8023L41.6242 97.8023C41.2024 97.8023 40.9847 97.3242 41.3002 97.0442C42.332 96.1286 44.1575 95.0523 47.0691 95.0523Z" fill="#E2E8F0"/>
<path d="M53.8191 83.5523L53.8191 97.8023M53.8191 97.8023C52.3191 96.8856 50.8691 95.0523 47.0691 95.0523C44.1575 95.0523 42.332 96.1286 41.3002 97.0442C40.9847 97.3242 41.2024 97.8023 41.6242 97.8023L53.8191 97.8023Z" stroke="#E2E8F0" stroke-width="2"/>
<path d="M96.2329 72.1961C90.2184 60.5174 80.0509 41.6017 73.7499 45.584C65.8737 50.5618 85.2062 65.8781 75.898 72.1962C66.5898 78.5142 57.9976 39.8403 49.5485 45.5839C41.0995 51.3276 57.7111 66.4525 51.1238 72.1962C45.8539 76.7911 36.8034 60.6559 29.5 48.2752" stroke="#E2E8F0" stroke-width="24.5454" stroke-linecap="round"/>
<path d="M46 60.0001C46.2297 59.3335 47.3324 58.0001 49.9054 58.0001C52.4784 58.0001 54.0405 59.3335 54.5 60.0001" stroke="white" stroke-width="1.75" stroke-linecap="round"/>
<path d="M61 60.0001C61.2297 59.3335 62.3324 58.0001 64.9054 58.0001C67.4784 58.0001 69.0405 59.3335 69.5 60.0001" stroke="white" stroke-width="1.75" stroke-linecap="round"/>
<path d="M98.4999 41.0002C98.735 38.2243 94.3324 37.5982 91.75 37.7501C79.0001 38.5002 90.4183 40.0143 98.4999 41.0002Z" fill="#E2E8F0"/>
<path d="M97.8089 51.8315C110.584 50.8099 101.917 42.9873 98.4999 41.0002M98.4999 41.0002C98.735 38.2243 94.3324 37.5982 91.75 37.7501C79.0001 38.5002 90.4183 40.0143 98.4999 41.0002Z" stroke="#E2E8F0" stroke-width="2"/>
<path d="M88.4155 19.0969C89.4001 16.07 90.8125 15.3464 92.1255 15.7735C93.4384 16.2006 94.1548 17.6166 93.1702 20.6436C92.1856 23.6705 88.8775 25.7585 88.8775 25.7585C88.8775 25.7585 87.4308 22.1239 88.4155 19.0969Z" fill="#E2E8F0"/>
<path d="M95.9962 24.2051C97.2429 23.0489 98.0901 23.0786 98.5916 23.6194C99.0932 24.1602 99.0591 25.0072 97.8124 26.1635C96.5657 27.3197 94.4791 27.4335 94.4791 27.4335C94.4791 27.4335 94.7495 25.3613 95.9962 24.2051Z" fill="#E2E8F0"/>
<path d="M97.9438 28.5709C99.1988 28.5708 99.6424 29.0121 99.6424 29.5564C99.6424 30.1008 99.1989 30.5421 97.9439 30.5422C96.689 30.5423 95.5026 29.5567 95.5026 29.5567C95.5026 29.5567 96.6888 28.571 97.9438 28.5709Z" fill="#E2E8F0"/>
<path d="M102.571 25.6831C103.416 25.5165 103.778 25.7763 103.855 26.1695C103.933 26.5627 103.697 26.9404 102.852 27.107C102.006 27.2736 101.067 26.7191 101.067 26.7191C101.067 26.7191 101.726 25.8497 102.571 25.6831Z" fill="#E2E8F0"/>
<path d="M19.8036 72.1269C17.1907 73.0931 14.3742 73.116 12.0505 70.8909C7.2422 66.2866 15.2158 69.7965 19.8036 72.1269Z" fill="#E2E8F0"/>
<path d="M30.75 65.0002C29.273 66.595 22.5976 71.0939 19.8036 72.1269M19.8036 72.1269C17.1907 73.0931 14.3742 73.116 12.0505 70.8909C7.2422 66.2866 15.2158 69.7965 19.8036 72.1269Z" stroke="#E2E8F0" stroke-width="2"/>
</svg>
