<svg width="240" height="240" viewBox="0 0 240 240" fill="none" xmlns="http://www.w3.org/2000/svg">
<path d="M70.8701 177.993C72.9801 175.968 75.4924 175.999 78.9383 178.218C80.5881 179.28 82.4519 180.844 84.588 182.924C88.7462 186.974 90.1131 190.912 90.4781 193.601C90.5916 194.437 89.64 194.858 89.0125 194.294L70.8701 177.993Z" fill="#E2E8F0"/>
<path d="M89.918 156.793V156.793C94.7764 168.347 84.8069 180.656 72.4962 178.304L70.8701 177.993M70.8701 177.993C73.9903 174.999 77.9903 176.499 84.588 182.924C88.7462 186.974 90.1131 190.912 90.4781 193.601C90.5916 194.437 89.64 194.858 89.0125 194.294L70.8701 177.993Z" stroke="#E2E8F0" stroke-width="4"/>
<path d="M131.5 184.999C123.9 184.999 121 188.665 118 190.499H142.39C143.233 190.499 143.669 189.542 143.038 188.982C140.974 187.151 137.323 184.999 131.5 184.999Z" fill="#E2E8F0"/>
<path d="M118 161.999V190.499M118 190.499C121 188.665 123.9 184.999 131.5 184.999C137.323 184.999 140.974 187.151 143.038 188.982C143.669 189.542 143.233 190.499 142.39 190.499H118Z" stroke="#E2E8F0" stroke-width="4"/>
<path d="M33 139.391C45.0291 116.033 65.364 78.202 77.9659 86.1665C93.7183 96.1222 55.0534 126.755 73.6698 139.391C92.2863 152.027 109.471 74.6791 126.369 86.1664C143.267 97.6538 110.044 127.904 123.218 139.391C133.758 148.581 151.859 116.31 166.466 91.5489" stroke="#E2E8F0" stroke-width="49.0909" stroke-linecap="round"/>
<path d="M107 112.499C107 116.903 105.916 120.842 104.216 123.648C102.505 126.471 100.277 127.999 98 127.999C95.7229 127.999 93.4954 126.471 91.7841 123.648C90.084 120.842 89 116.903 89 112.499C89 108.094 90.084 104.155 91.7841 101.35C93.4954 98.5261 95.7229 96.9986 98 96.9986C100.277 96.9986 102.505 98.5261 104.216 101.35C105.916 104.155 107 108.094 107 112.499Z" fill="white" stroke="#E2E8F0" stroke-width="2"/>
<path d="M107 112.499C107 115.242 106.31 117.679 105.246 119.397C104.173 121.13 102.821 121.999 101.5 121.999C100.179 121.999 98.8272 121.13 97.7541 119.397C96.6905 117.679 96 115.242 96 112.499C96 109.755 96.6905 107.318 97.7541 105.6C98.8272 103.867 100.179 102.999 101.5 102.999C102.821 102.999 104.173 103.867 105.246 105.6C106.31 107.318 107 109.755 107 112.499Z" fill="#E2E8F0" stroke="#E2E8F0" stroke-width="2"/>
<path d="M133 112.499C133 116.903 131.916 120.842 130.216 123.648C128.505 126.471 126.277 127.999 124 127.999C121.723 127.999 119.495 126.471 117.784 123.648C116.084 120.842 115 116.903 115 112.499C115 108.094 116.084 104.155 117.784 101.35C119.495 98.5261 121.723 96.9986 124 96.9986C126.277 96.9986 128.505 98.5261 130.216 101.35C131.916 104.155 133 108.094 133 112.499Z" fill="white" stroke="#E2E8F0" stroke-width="2"/>
<path d="M133 112.499C133 115.242 132.31 117.679 131.246 119.397C130.173 121.13 128.821 121.999 127.5 121.999C126.179 121.999 124.827 121.13 123.754 119.397C122.69 117.679 122 115.242 122 112.499C122 109.755 122.69 107.318 123.754 105.6C124.827 103.867 126.179 102.999 127.5 102.999C128.821 102.999 130.173 103.867 131.246 105.6C132.31 107.318 133 109.755 133 112.499Z" fill="#E2E8F0" stroke="#E2E8F0" stroke-width="2"/>
<path d="M176.17 135.94C181.511 137.526 187.135 137.204 191.481 132.46C200.476 122.643 185.021 130.689 176.17 135.94Z" fill="#E2E8F0"/>
<path d="M161.916 127.374C165.072 130.364 170.459 134.243 176.17 135.94M176.17 135.94C181.511 137.526 187.135 137.204 191.481 132.46C200.476 122.643 185.021 130.689 176.17 135.94Z" stroke="#E2E8F0" stroke-width="4"/>
<g clip-path="url(#clip0_1_514)">
<path d="M155.559 46.1517C155.25 45.0912 155.86 43.981 156.92 43.672L184.762 35.5595C185.823 35.2505 186.933 35.8597 187.242 36.9201L226.789 172.644C226.904 173.039 226.894 173.46 226.761 173.849L218.617 197.732C218.17 199.044 216.556 199.514 215.475 198.648L195.776 182.877C195.455 182.62 195.221 182.27 195.106 181.876L155.559 46.1517Z" fill="#E2E8F0"/>
<g clip-path="url(#clip1_1_514)">
<mask id="mask0_1_514" style="mask-type:alpha" maskUnits="userSpaceOnUse" x="155" y="35" width="72" height="165">
<path d="M155.559 46.1517C155.25 45.0912 155.86 43.981 156.92 43.672L184.762 35.5595C185.823 35.2505 186.933 35.8597 187.242 36.9201L226.789 172.644C226.904 173.039 226.894 173.46 226.761 173.849L218.617 197.732C218.17 199.044 216.556 199.514 215.475 198.648L195.776 182.877C195.455 182.62 195.221 182.27 195.106 181.876L155.559 46.1517Z" fill="#D9D9D9"/>
</mask>
<g mask="url(#mask0_1_514)">
<path fill-rule="evenodd" clip-rule="evenodd" d="M205.557 203.445L157.721 39.2722L159.642 38.7127L207.478 202.886L205.557 203.445Z" fill="#CBD5E1"/>
<path fill-rule="evenodd" clip-rule="evenodd" d="M211.318 201.767L163.482 37.5938L165.402 37.0343L213.238 201.207L211.318 201.767Z" fill="#CBD5E1"/>
<path fill-rule="evenodd" clip-rule="evenodd" d="M217.078 200.088L169.242 35.9153L171.163 35.3558L218.999 199.529L217.078 200.088Z" fill="#CBD5E1"/>
<path fill-rule="evenodd" clip-rule="evenodd" d="M222.839 198.41L175.003 34.2369L176.923 33.6774L224.759 197.85L222.839 198.41Z" fill="#CBD5E1"/>
<path fill-rule="evenodd" clip-rule="evenodd" d="M228.599 196.731L180.763 32.5584L182.683 31.9989L230.519 196.172L228.599 196.731Z" fill="#CBD5E1"/>
</g>
</g>
</g>
<mask id="mask1_1_514" style="mask-type:alpha" maskUnits="userSpaceOnUse" x="156" y="35" width="71" height="165">
<path d="M156.146 46.2848C155.837 45.2244 156.446 44.1142 157.507 43.8052L184.389 35.9724C185.449 35.6634 186.56 36.2726 186.869 37.3331L226.42 173.072C226.532 173.458 226.526 173.868 226.402 174.25L218.713 197.908C218.277 199.249 216.627 199.73 215.538 198.833L196.345 183.008C196.035 182.752 195.81 182.409 195.697 182.024L156.146 46.2848Z" fill="#94A3B8"/>
</mask>
<g mask="url(#mask1_1_514)">
<rect x="206.938" y="196.16" width="19.3939" height="11" transform="rotate(-16.2448 206.938 196.16)" fill="#94A3B8"/>
</g>
<path d="M178.333 126.557C183.882 126.058 188.989 123.68 191.275 117.666C196.006 105.22 184.618 118.407 178.333 126.557Z" fill="#E2E8F0"/>
<path d="M161.923 123.865C165.96 125.477 172.4 127.091 178.333 126.557M178.333 126.557C183.882 126.058 188.989 123.68 191.275 117.666C196.006 105.22 184.618 118.407 178.333 126.557Z" stroke="#E2E8F0" stroke-width="4"/>
<defs>
<clipPath id="clip0_1_514">
<rect width="33" height="167.5" fill="white" transform="translate(155 44.2315) rotate(-16.2448)"/>
</clipPath>
<clipPath id="clip1_1_514">
<rect width="33" height="167.5" fill="white" transform="translate(155 44.2315) rotate(-16.2448)"/>
</clipPath>
</defs>
</svg>
