<svg width="120" height="120" viewBox="0 0 120 120" fill="none" xmlns="http://www.w3.org/2000/svg">
<path d="M35.4351 88.9969C36.4901 87.9845 37.7462 87.9997 39.4692 89.1091C40.2941 89.6403 41.226 90.4224 42.294 91.4626C44.3731 93.4875 45.0565 95.4564 45.2391 96.8008C45.2958 97.2188 44.82 97.4292 44.5062 97.1472L35.4351 88.9969Z" fill="#E2E8F0"/>
<path d="M44.959 78.397V78.397C47.3882 84.1737 42.4035 90.3283 36.2481 89.1522L35.4351 88.9969M35.4351 88.9969C36.9952 87.4998 38.9952 88.2498 42.294 91.4626C44.3731 93.4875 45.0565 95.4564 45.2391 96.8008C45.2958 97.2188 44.82 97.4292 44.5062 97.1472L35.4351 88.9969Z" stroke="#E2E8F0" stroke-width="2"/>
<path d="M65.75 92.4997C61.95 92.4997 60.5 94.333 59 95.2497H71.1949C71.6167 95.2497 71.8344 94.7716 71.5189 94.4916C70.4871 93.576 68.6616 92.4997 65.75 92.4997Z" fill="#E2E8F0"/>
<path d="M59 80.9997V95.2497M59 95.2497C60.5 94.333 61.95 92.4997 65.75 92.4997C68.6616 92.4997 70.4871 93.576 71.5189 94.4916C71.8344 94.7716 71.6167 95.2497 71.1949 95.2497H59Z" stroke="#E2E8F0" stroke-width="2"/>
<path d="M16.5 69.6957C22.5146 58.0169 32.682 39.1012 38.983 43.0835C46.8592 48.0613 27.5267 63.3777 36.8349 69.6957C46.1431 76.0137 54.7354 37.3398 63.1844 43.0834C71.6334 48.8271 55.0218 63.952 61.6091 69.6957C66.879 74.2906 75.9295 58.1554 83.2329 45.7747" stroke="#E2E8F0" stroke-width="24.5454" stroke-linecap="round"/>
<path d="M53.5 56.2496C53.5 58.4519 52.958 60.4215 52.1079 61.8241C51.2523 63.2359 50.1386 63.9996 49 63.9996C47.8614 63.9996 46.7477 63.2359 45.8921 61.8241C45.042 60.4215 44.5 58.4519 44.5 56.2496C44.5 54.0474 45.042 52.0777 45.8921 50.6752C46.7477 49.2634 47.8614 48.4996 49 48.4996C50.1386 48.4996 51.2523 49.2634 52.1079 50.6752C52.958 52.0777 53.5 54.0474 53.5 56.2496Z" fill="white" stroke="#E2E8F0"/>
<path d="M53.5 56.2498C53.5 57.6217 53.1548 58.8399 52.623 59.6989C52.0864 60.5657 51.4105 60.9998 50.75 60.9998C50.0895 60.9998 49.4136 60.5657 48.877 59.6989C48.3452 58.8399 48 57.6217 48 56.2498C48 54.8779 48.3452 53.6597 48.877 52.8007C49.4136 51.934 50.0895 51.4998 50.75 51.4998C51.4105 51.4998 52.0864 51.934 52.623 52.8007C53.1548 53.6597 53.5 54.8779 53.5 56.2498Z" fill="#E2E8F0" stroke="#E2E8F0"/>
<path d="M66.5 56.2496C66.5 58.4519 65.958 60.4215 65.1079 61.8241C64.2523 63.2359 63.1386 63.9996 62 63.9996C60.8614 63.9996 59.7477 63.2359 58.8921 61.8241C58.042 60.4215 57.5 58.4519 57.5 56.2496C57.5 54.0474 58.042 52.0777 58.8921 50.6752C59.7477 49.2634 60.8614 48.4996 62 48.4996C63.1386 48.4996 64.2523 49.2634 65.1079 50.6752C65.958 52.0777 66.5 54.0474 66.5 56.2496Z" fill="white" stroke="#E2E8F0"/>
<path d="M66.5 56.2498C66.5 57.6217 66.1548 58.8399 65.623 59.6989C65.0864 60.5657 64.4105 60.9998 63.75 60.9998C63.0895 60.9998 62.4136 60.5657 61.877 59.6989C61.3452 58.8399 61 57.6217 61 56.2498C61 54.8779 61.3452 53.6597 61.877 52.8007C62.4136 51.934 63.0895 51.4998 63.75 51.4998C64.4105 51.4998 65.0864 51.934 65.623 52.8007C66.1548 53.6597 66.5 54.8779 66.5 56.2498Z" fill="#E2E8F0" stroke="#E2E8F0"/>
<path d="M88.0851 67.9702C90.7555 68.7636 93.5675 68.6025 95.7409 66.2303C100.238 61.3217 92.5109 65.345 88.0851 67.9702Z" fill="#E2E8F0"/>
<path d="M80.958 63.6873C82.536 65.1822 85.2296 67.1219 88.0851 67.9702M88.0851 67.9702C90.7555 68.7636 93.5675 68.6025 95.7409 66.2303C100.238 61.3217 92.5109 65.345 88.0851 67.9702Z" stroke="#E2E8F0" stroke-width="2"/>
<g clip-path="url(#clip0_1_524)">
<path d="M77.7797 23.0758C77.6252 22.5456 77.9298 21.9905 78.4601 21.836L92.3812 17.7797C92.9114 17.6252 93.4665 17.9298 93.621 18.46L113.394 86.322C113.452 86.5194 113.447 86.7298 113.381 86.9245L109.309 98.8661C109.085 99.522 108.278 99.7571 107.737 99.324L97.8882 91.4386C97.7276 91.3101 97.6106 91.1352 97.5531 90.9377L77.7797 23.0758Z" fill="#E2E8F0"/>
<g clip-path="url(#clip1_1_524)">
<mask id="mask0_1_524" style="mask-type:alpha" maskUnits="userSpaceOnUse" x="77" y="17" width="37" height="83">
<path d="M77.7797 23.0758C77.6252 22.5456 77.9298 21.9905 78.4601 21.836L92.3812 17.7797C92.9114 17.6252 93.4665 17.9298 93.621 18.46L113.394 86.322C113.452 86.5194 113.447 86.7298 113.381 86.9245L109.309 98.8661C109.085 99.522 108.278 99.7571 107.737 99.324L97.8882 91.4386C97.7276 91.3101 97.6106 91.1352 97.5531 90.9377L77.7797 23.0758Z" fill="#D9D9D9"/>
</mask>
<g mask="url(#mask0_1_524)">
<path fill-rule="evenodd" clip-rule="evenodd" d="M102.779 101.723L78.8606 19.6361L79.8207 19.3564L103.739 101.443L102.779 101.723Z" fill="#CBD5E1"/>
<path fill-rule="evenodd" clip-rule="evenodd" d="M105.659 100.883L81.741 18.7969L82.701 18.5171L106.619 100.604L105.659 100.883Z" fill="#CBD5E1"/>
<path fill-rule="evenodd" clip-rule="evenodd" d="M108.539 100.044L84.6211 17.9576L85.5812 17.6779L109.499 99.7643L108.539 100.044Z" fill="#CBD5E1"/>
<path fill-rule="evenodd" clip-rule="evenodd" d="M111.419 99.2048L87.5012 17.1184L88.4613 16.8387L112.379 98.9251L111.419 99.2048Z" fill="#CBD5E1"/>
<path fill-rule="evenodd" clip-rule="evenodd" d="M114.3 98.3656L90.3816 16.2792L91.3417 15.9994L115.26 98.0858L114.3 98.3656Z" fill="#CBD5E1"/>
</g>
</g>
</g>
<mask id="mask1_1_524" style="mask-type:alpha" maskUnits="userSpaceOnUse" x="78" y="17" width="36" height="83">
<path d="M78.073 23.1424C77.9185 22.6122 78.2231 22.0571 78.7533 21.9026L92.1943 17.9862C92.7246 17.8317 93.2797 18.1363 93.4342 18.6665L113.21 86.536C113.266 86.7288 113.263 86.9339 113.201 87.1248L109.356 98.9538C109.138 99.6245 108.313 99.8649 107.769 99.4163L98.1724 91.5037C98.0175 91.376 97.9046 91.2046 97.8485 91.0119L78.073 23.1424Z" fill="#94A3B8"/>
</mask>
<g mask="url(#mask1_1_524)">
<rect x="103.469" y="98.0798" width="9.69697" height="5.5" transform="rotate(-16.2448 103.469 98.0798)" fill="#94A3B8"/>
</g>
<path d="M89.1664 63.2788C91.941 63.0293 94.4944 61.8405 95.6374 58.8331C98.0026 52.6101 92.3089 59.204 89.1664 63.2788Z" fill="#E2E8F0"/>
<path d="M80.9611 61.9325C82.9798 62.7385 86.1995 63.5456 89.1664 63.2788M89.1664 63.2788C91.941 63.0293 94.4944 61.8405 95.6374 58.8331C98.0026 52.6101 92.3089 59.204 89.1664 63.2788Z" stroke="#E2E8F0" stroke-width="2"/>
<defs>
<clipPath id="clip0_1_524">
<rect width="16.5" height="83.75" fill="white" transform="translate(77.5 22.1157) rotate(-16.2448)"/>
</clipPath>
<clipPath id="clip1_1_524">
<rect width="16.5" height="83.75" fill="white" transform="translate(77.5 22.1157) rotate(-16.2448)"/>
</clipPath>
</defs>
</svg>
