<svg width="71" height="41" viewBox="0 0 71 41" fill="none" xmlns="http://www.w3.org/2000/svg">
<path d="M14 28.3901C17.8755 20.8648 24.427 8.67623 28.4871 11.2422C33.5622 14.4498 21.1052 24.319 27.103 28.3901C33.1009 32.4612 38.6373 7.54124 44.0815 11.2422C49.5258 14.9432 38.8219 24.6891 43.0665 28.3901C46.4622 31.3509 52.294 20.954 57 12.9763" stroke="#6500C3" stroke-width="15.8161" stroke-linecap="round"/>
<path d="M37.8413 19.7259C37.8413 21.1449 37.4921 22.4141 36.9443 23.3179C36.393 24.2275 35.6754 24.7197 34.9417 24.7197C34.2081 24.7197 33.4904 24.2275 32.9391 23.3179C32.3913 22.4141 32.0421 21.1449 32.0421 19.7259C32.0421 18.3068 32.3913 17.0377 32.9391 16.1339C33.4904 15.2242 34.2081 14.7321 34.9417 14.7321C35.6754 14.7321 36.393 15.2242 36.9443 16.1339C37.4921 17.0377 37.8413 18.3068 37.8413 19.7259Z" fill="white" stroke="#0F172A" stroke-width="0.64436"/>
<path d="M37.8413 19.7259C37.8413 20.6099 37.6189 21.3949 37.2762 21.9484C36.9305 22.5069 36.4949 22.7866 36.0693 22.7866C35.6437 22.7866 35.2082 22.5069 34.8625 21.9484C34.5198 21.3949 34.2973 20.6099 34.2973 19.7259C34.2973 18.8419 34.5198 18.057 34.8625 17.5034C35.2082 16.9449 35.6437 16.6652 36.0693 16.6652C36.4949 16.6652 36.9305 16.9449 37.2762 17.5034C37.6189 18.057 37.8413 18.8419 37.8413 19.7259Z" fill="#0F172A" stroke="#0F172A" stroke-width="0.64436"/>
<path d="M46.218 19.7259C46.218 21.1449 45.8688 22.4141 45.321 23.3179C44.7697 24.2275 44.052 24.7197 43.3184 24.7197C42.5847 24.7197 41.8671 24.2275 41.3158 23.3179C40.768 22.4141 40.4188 21.1449 40.4188 19.7259C40.4188 18.3068 40.768 17.0377 41.3158 16.1339C41.8671 15.2242 42.5847 14.7321 43.3184 14.7321C44.052 14.7321 44.7697 15.2242 45.321 16.1339C45.8688 17.0377 46.218 18.3068 46.218 19.7259Z" fill="white" stroke="#0F172A" stroke-width="0.64436"/>
<path d="M46.218 19.7259C46.218 20.6099 45.9955 21.3949 45.6529 21.9484C45.3071 22.5069 44.8716 22.7866 44.446 22.7866C44.0204 22.7866 43.5849 22.5069 43.2391 21.9484C42.8965 21.3949 42.674 20.6099 42.674 19.7259C42.674 18.8419 42.8965 18.057 43.2391 17.5034C43.5849 16.9449 44.0204 16.6652 44.446 16.6652C44.8716 16.6652 45.3071 16.9449 45.6529 17.5034C45.9955 18.057 46.218 18.8419 46.218 19.7259Z" fill="#0F172A" stroke="#0F172A" stroke-width="0.64436"/>
</svg>
