<svg width="151" height="40" viewBox="0 0 151 40" fill="none" xmlns="http://www.w3.org/2000/svg">
<path d="M11 28.6755C14.8755 21.1502 21.427 8.96164 25.4871 11.5276C30.5622 14.7352 18.1052 24.6044 24.103 28.6755C30.1009 32.7466 35.6373 7.82664 41.0815 11.5276C46.5258 15.2286 35.8219 24.9745 40.0665 28.6755C43.4622 31.6363 49.294 21.2394 54 13.2617" stroke="#6500C3" stroke-width="15.8161" stroke-linecap="round"/>
<path d="M34.8413 20.0113C34.8413 21.4303 34.4921 22.6995 33.9443 23.6033C33.393 24.5129 32.6754 25.0051 31.9417 25.0051C31.2081 25.0051 30.4904 24.5129 29.9391 23.6033C29.3913 22.6995 29.0421 21.4303 29.0421 20.0113C29.0421 18.5922 29.3913 17.3231 29.9391 16.4193C30.4904 15.5096 31.2081 15.0175 31.9417 15.0175C32.6754 15.0175 33.393 15.5096 33.9443 16.4193C34.4921 17.3231 34.8413 18.5922 34.8413 20.0113Z" fill="white" stroke="#0F172A" stroke-width="0.64436"/>
<path d="M34.8413 20.0113C34.8413 20.8953 34.6189 21.6803 34.2762 22.2338C33.9305 22.7923 33.4949 23.072 33.0693 23.072C32.6437 23.072 32.2082 22.7923 31.8625 22.2338C31.5198 21.6803 31.2973 20.8953 31.2973 20.0113C31.2973 19.1273 31.5198 18.3424 31.8625 17.7888C32.2082 17.2303 32.6437 16.9506 33.0693 16.9506C33.4949 16.9506 33.9305 17.2303 34.2762 17.7888C34.6189 18.3424 34.8413 19.1273 34.8413 20.0113Z" fill="#0F172A" stroke="#0F172A" stroke-width="0.64436"/>
<path d="M43.218 20.0113C43.218 21.4303 42.8688 22.6995 42.321 23.6033C41.7697 24.5129 41.0521 25.0051 40.3184 25.0051C39.5848 25.0051 38.8671 24.5129 38.3158 23.6033C37.7681 22.6995 37.4188 21.4303 37.4188 20.0113C37.4188 18.5922 37.7681 17.3231 38.3158 16.4193C38.8671 15.5096 39.5848 15.0175 40.3184 15.0175C41.0521 15.0175 41.7697 15.5096 42.321 16.4193C42.8688 17.3231 43.218 18.5922 43.218 20.0113Z" fill="white" stroke="#0F172A" stroke-width="0.64436"/>
<path d="M43.218 20.0113C43.218 20.8953 42.9956 21.6803 42.6529 22.2338C42.3072 22.7923 41.8717 23.072 41.446 23.072C41.0204 23.072 40.5849 22.7923 40.2392 22.2338C39.8965 21.6803 39.674 20.8953 39.674 20.0113C39.674 19.1273 39.8965 18.3424 40.2392 17.7888C40.5849 17.2303 41.0204 16.9506 41.446 16.9506C41.8717 16.9506 42.3072 17.2303 42.6529 17.7888C42.9956 18.3424 43.218 19.1273 43.218 20.0113Z" fill="#0F172A" stroke="#0F172A" stroke-width="0.64436"/>
</svg>
