<svg width="64" height="64" viewBox="0 0 64 64" fill="none" xmlns="http://www.w3.org/2000/svg">
<path fill-rule="evenodd" clip-rule="evenodd" d="M37.9465 5.33337H26.6665C14.8844 5.33337 5.33319 14.8846 5.33319 26.6667V37.9734C5.33319 49.7554 14.8844 59.3067 26.6665 59.3067H37.9465C49.7286 59.3067 59.2799 49.7554 59.2799 37.9734V26.6667C59.2799 14.8846 49.7286 5.33337 37.9465 5.33337ZM21.6532 16.32C24.5987 16.32 26.9865 18.7079 26.9865 21.6534C26.9865 24.5989 24.5987 26.9867 21.6532 26.9867C18.7077 26.9867 16.3199 24.5989 16.3199 21.6534C16.3199 18.7079 18.7077 16.32 21.6532 16.32ZM41.3599 53.6534C48.9096 50.8339 53.923 43.6323 53.9465 35.5734L53.8665 30.9867C53.8665 29.8934 53.6532 27.84 53.6532 27.84H49.3065C39.2435 27.8706 30.0547 33.5633 25.5465 42.56C22.2743 39.6348 18.0423 38.0122 13.6532 38H10.4265C10.1885 44.1993 13.5556 49.9775 19.0665 52.8267C21.0366 53.8762 23.2343 54.4256 25.4665 54.4267H36.5865C38.2106 54.4499 39.8262 54.1882 41.3599 53.6534Z" fill="#E2E8F0"/>
</svg>
