<svg width="280" height="56" viewBox="0 0 280 56" fill="none" xmlns="http://www.w3.org/2000/svg">
<rect x="2.12" y="4.5" width="276.88" height="50.5" rx="23" fill="#0F172A" stroke="#0F172A" stroke-width="2"/>
<rect x="1" y="1" width="276.88" height="50.5" rx="23" fill="#F1F5F9" stroke="#0F172A" stroke-width="2"/>
<path d="M36.5328 27.32V30.744H28.8208V32.264H36.9168V33.224H27.7168V29.8H35.4288V28.296H27.6368V27.32H36.5328ZM29.3808 26.312C28.8154 26.312 28.3248 26.2533 27.9088 26.136C27.4928 26.008 27.1461 25.848 26.8688 25.656C26.5914 25.4533 26.3834 25.2187 26.2448 24.952C26.1061 24.6853 26.0368 24.408 26.0368 24.12V23.736C26.0368 23.448 26.1061 23.1707 26.2448 22.904C26.3834 22.6373 26.5914 22.408 26.8688 22.216C27.1461 22.0133 27.4928 21.8533 27.9088 21.736C28.3248 21.608 28.8154 21.544 29.3808 21.544C29.9461 21.544 30.4368 21.608 30.8528 21.736C31.2688 21.8533 31.6154 22.0133 31.8928 22.216C32.1701 22.4187 32.3781 22.6533 32.5168 22.92C32.6554 23.176 32.7248 23.448 32.7248 23.736V24.12C32.7248 24.408 32.6554 24.6853 32.5168 24.952C32.3781 25.2187 32.1701 25.4533 31.8928 25.656C31.6154 25.848 31.2688 26.008 30.8528 26.136C30.4368 26.2533 29.9461 26.312 29.3808 26.312ZM36.5328 22.024H38.7728V23.016H36.5328V26.456H35.4128V18.552H36.5328V22.024ZM29.3808 22.488C29.0074 22.488 28.6768 22.5253 28.3888 22.6C28.1114 22.6747 27.8768 22.776 27.6848 22.904C27.5034 23.0213 27.3648 23.1547 27.2688 23.304C27.1728 23.4533 27.1248 23.608 27.1248 23.768V24.088C27.1248 24.248 27.1728 24.4027 27.2688 24.552C27.3648 24.7013 27.5034 24.84 27.6848 24.968C27.8768 25.0853 28.1114 25.1813 28.3888 25.256C28.6768 25.3307 29.0074 25.368 29.3808 25.368C29.7541 25.368 30.0794 25.3307 30.3568 25.256C30.6448 25.1813 30.8794 25.0853 31.0608 24.968C31.2528 24.84 31.3968 24.7013 31.4928 24.552C31.5888 24.4027 31.6368 24.248 31.6368 24.088V23.768C31.6368 23.608 31.5888 23.4533 31.4928 23.304C31.3968 23.1547 31.2528 23.0213 31.0608 22.904C30.8794 22.776 30.6448 22.6747 30.3568 22.6C30.0794 22.5253 29.7541 22.488 29.3808 22.488ZM29.9408 19.88H33.6208V20.856H25.1888V19.88H28.8208V18.248H29.9408V19.88ZM55.6713 26.616V30.392H47.8313V32.264H56.0553V33.224H46.7273V29.448H54.5673V27.592H46.6473V26.616H55.6713ZM55.6713 25.752H54.5513V18.552H55.6713V25.752ZM47.8473 25.384C47.3246 25.384 46.8446 25.304 46.4073 25.144C45.9699 24.984 45.5913 24.7707 45.2713 24.504C44.9619 24.2373 44.7166 23.928 44.5353 23.576C44.3646 23.224 44.2793 22.856 44.2793 22.472V21.768C44.2793 21.384 44.3646 21.016 44.5353 20.664C44.7166 20.312 44.9619 20.0027 45.2713 19.736C45.5913 19.4693 45.9699 19.256 46.4073 19.096C46.8446 18.936 47.3246 18.856 47.8473 18.856C48.3699 18.856 48.8499 18.936 49.2873 19.096C49.7246 19.256 50.0979 19.4693 50.4073 19.736C50.7273 20.0027 50.9726 20.312 51.1433 20.664C51.3246 21.016 51.4153 21.384 51.4153 21.768V22.472C51.4153 22.856 51.3246 23.224 51.1433 23.576C50.9726 23.928 50.7273 24.2373 50.4073 24.504C50.0979 24.7707 49.7246 24.984 49.2873 25.144C48.8499 25.304 48.3699 25.384 47.8473 25.384ZM47.8473 19.864C47.4846 19.864 47.1486 19.9173 46.8393 20.024C46.5406 20.1307 46.2793 20.2747 46.0553 20.456C45.8419 20.6373 45.6713 20.8507 45.5433 21.096C45.4259 21.3413 45.3673 21.5973 45.3673 21.864V22.376C45.3673 22.6533 45.4259 22.9147 45.5433 23.16C45.6713 23.3947 45.8419 23.6027 46.0553 23.784C46.2793 23.9653 46.5406 24.1093 46.8393 24.216C47.1486 24.3227 47.4846 24.376 47.8473 24.376C48.2099 24.376 48.5406 24.3227 48.8393 24.216C49.1486 24.1093 49.4099 23.9653 49.6233 23.784C49.8473 23.6027 50.0179 23.3947 50.1353 23.16C50.2633 22.9147 50.3273 22.6533 50.3273 22.376V21.864C50.3273 21.5973 50.2633 21.3413 50.1353 21.096C50.0179 20.8507 49.8473 20.6373 49.6233 20.456C49.4099 20.2747 49.1486 20.1307 48.8393 20.024C48.5406 19.9173 48.2099 19.864 47.8473 19.864ZM71.5938 25.096V26.056H58.1538V25.096H71.5938ZM69.4498 21.592C69.4498 21.9653 69.3324 22.3013 69.0978 22.6C68.8631 22.8987 68.5378 23.1547 68.1218 23.368C67.7164 23.5707 67.2311 23.7307 66.6658 23.848C66.1111 23.9547 65.5138 24.008 64.8738 24.008C64.2338 24.008 63.6311 23.9547 63.0658 23.848C62.5111 23.7307 62.0258 23.5707 61.6098 23.368C61.2044 23.1547 60.8844 22.8987 60.6498 22.6C60.4151 22.3013 60.2978 21.9653 60.2978 21.592V21.112C60.2978 20.728 60.4151 20.3867 60.6498 20.088C60.8844 19.7893 61.2044 19.5387 61.6098 19.336C62.0258 19.1227 62.5111 18.9627 63.0658 18.856C63.6311 18.7493 64.2338 18.696 64.8738 18.696C65.5138 18.696 66.1111 18.7547 66.6658 18.872C67.2311 18.9787 67.7164 19.1387 68.1218 19.352C68.5378 19.5547 68.8631 19.8053 69.0978 20.104C69.3324 20.4027 69.4498 20.7387 69.4498 21.112V21.592ZM61.4018 21.544C61.4018 21.7573 61.4924 21.96 61.6738 22.152C61.8551 22.3333 62.1004 22.4933 62.4098 22.632C62.7298 22.7707 63.0978 22.8773 63.5138 22.952C63.9404 23.0267 64.3938 23.064 64.8738 23.064C65.3538 23.064 65.8018 23.0267 66.2178 22.952C66.6444 22.8773 67.0124 22.7707 67.3218 22.632C67.6418 22.4933 67.8924 22.3333 68.0738 22.152C68.2551 21.96 68.3458 21.7573 68.3458 21.544V21.16C68.3458 20.9467 68.2551 20.7493 68.0738 20.568C67.8924 20.376 67.6418 20.216 67.3218 20.088C67.0124 19.9493 66.6444 19.8427 66.2178 19.768C65.8018 19.6827 65.3538 19.64 64.8738 19.64C64.3938 19.64 63.9404 19.6827 63.5138 19.768C63.0978 19.8427 62.7298 19.9493 62.4098 20.088C62.1004 20.216 61.8551 20.376 61.6738 20.568C61.4924 20.7493 61.4018 20.9467 61.4018 21.16V21.544ZM69.5938 27.336V30.744H61.2738V32.296H70.0258V33.24H60.1698V29.816H68.4898V28.28H60.0898V27.336H69.5938ZM88.7963 26.888V33.16H79.8683V26.888H80.9723V28.904H87.6923V26.888H88.7963ZM77.4043 22.008C77.4043 21.6453 77.4896 21.288 77.6603 20.936C77.8309 20.584 78.0709 20.2747 78.3803 20.008C78.7003 19.7307 79.0789 19.512 79.5163 19.352C79.9536 19.1813 80.4389 19.096 80.9723 19.096C81.5056 19.096 81.9909 19.1813 82.4283 19.352C82.8656 19.512 83.2389 19.7307 83.5483 20.008C83.8683 20.2747 84.1136 20.584 84.2843 20.936C84.4549 21.288 84.5403 21.6453 84.5403 22.008V22.776C84.5403 23.1493 84.4549 23.512 84.2843 23.864C84.1136 24.2053 83.8683 24.5147 83.5483 24.792C83.2389 25.0587 82.8656 25.2773 82.4283 25.448C81.9909 25.608 81.5056 25.688 80.9723 25.688C80.4389 25.688 79.9536 25.608 79.5163 25.448C79.0789 25.2773 78.7003 25.0587 78.3803 24.792C78.0709 24.5147 77.8309 24.2053 77.6603 23.864C77.4896 23.512 77.4043 23.1493 77.4043 22.776V22.008ZM83.4523 22.12C83.4523 21.8533 83.3883 21.6027 83.2603 21.368C83.1429 21.1227 82.9723 20.9093 82.7483 20.728C82.5243 20.536 82.2576 20.3867 81.9483 20.28C81.6496 20.1627 81.3243 20.104 80.9723 20.104C80.6203 20.104 80.2896 20.1627 79.9803 20.28C79.6816 20.3867 79.4203 20.536 79.1963 20.728C78.9723 20.9093 78.7963 21.1227 78.6683 21.368C78.5509 21.6027 78.4923 21.8533 78.4923 22.12V22.664C78.4923 22.9307 78.5509 23.1867 78.6683 23.432C78.7963 23.6667 78.9723 23.88 79.1963 24.072C79.4203 24.2533 79.6816 24.4027 79.9803 24.52C80.2896 24.6267 80.6203 24.68 80.9723 24.68C81.3243 24.68 81.6496 24.6267 81.9483 24.52C82.2576 24.4027 82.5243 24.2533 82.7483 24.072C82.9723 23.88 83.1429 23.6667 83.2603 23.432C83.3883 23.1867 83.4523 22.9307 83.4523 22.664V22.12ZM87.6923 32.152V29.896H80.9723V32.152H87.6923ZM88.7963 26.024H87.6763V18.552H88.7963V26.024ZM93.3268 25.704C94.0094 25.704 94.6548 25.704 95.2628 25.704C95.8708 25.6933 96.4468 25.6827 96.9908 25.672C97.5348 25.6507 98.0574 25.624 98.5588 25.592C99.0601 25.5493 99.5561 25.5013 100.047 25.448L100.159 26.424C99.6681 26.4773 99.1668 26.5253 98.6548 26.568C98.1428 26.6 97.5774 26.6267 96.9588 26.648C96.3508 26.6693 95.6628 26.6853 94.8948 26.696C94.1268 26.696 93.2361 26.696 92.2228 26.696V22.488H97.0708V20.248H92.2228V19.256H98.1748V23.448H93.3268V25.704ZM102.351 20.6V18.552H103.455V27.48H102.351V24.152H99.2948V23.176H102.351V21.576H99.2948V20.6H102.351ZM94.0468 28.344H103.455V33.304H102.351V29.336H94.0468V28.344ZM115.377 24.152H117.425V18.552H118.545V33.176H117.425V25.16H115.377V32.456H114.257V18.856H115.377V24.152ZM109.633 29.448C109.121 29.448 108.668 29.368 108.273 29.208C107.879 29.0373 107.543 28.8187 107.265 28.552C106.999 28.2853 106.796 27.9813 106.657 27.64C106.519 27.2987 106.449 26.9467 106.449 26.584V25.912C106.449 25.5493 106.519 25.1973 106.657 24.856C106.796 24.5147 106.999 24.2107 107.265 23.944C107.543 23.6773 107.879 23.464 108.273 23.304C108.668 23.1333 109.121 23.048 109.633 23.048C110.145 23.048 110.599 23.1333 110.993 23.304C111.388 23.464 111.719 23.6773 111.985 23.944C112.263 24.2107 112.471 24.5147 112.609 24.856C112.748 25.1973 112.817 25.5493 112.817 25.912V26.584C112.817 26.936 112.748 27.288 112.609 27.64C112.471 27.9813 112.263 28.2853 111.985 28.552C111.719 28.8187 111.388 29.0373 110.993 29.208C110.599 29.368 110.145 29.448 109.633 29.448ZM109.633 24.04C109.313 24.04 109.02 24.0987 108.753 24.216C108.497 24.3227 108.273 24.4667 108.081 24.648C107.9 24.8293 107.761 25.0373 107.665 25.272C107.569 25.5067 107.521 25.7467 107.521 25.992V26.504C107.521 26.7493 107.569 26.9893 107.665 27.224C107.761 27.4587 107.9 27.6667 108.081 27.848C108.273 28.0293 108.497 28.1787 108.753 28.296C109.02 28.4027 109.313 28.456 109.633 28.456C109.953 28.456 110.241 28.4027 110.497 28.296C110.764 28.1787 110.988 28.0293 111.169 27.848C111.361 27.6667 111.505 27.4587 111.601 27.224C111.697 26.9893 111.745 26.7493 111.745 26.504V25.992C111.745 25.7467 111.697 25.5067 111.601 25.272C111.505 25.0373 111.361 24.8293 111.169 24.648C110.988 24.4667 110.764 24.3227 110.497 24.216C110.241 24.0987 109.953 24.04 109.633 24.04ZM105.889 21.112H109.057V18.968H110.177V21.112H113.137V22.104H105.889V21.112ZM129.012 24.024C127.945 23.4907 127.321 23.0427 127.14 22.68H127.124C126.953 23.0427 126.329 23.496 125.252 24.04C124.814 24.2533 124.318 24.4933 123.764 24.76C123.209 25.016 122.596 25.272 121.924 25.528L121.428 24.632C122.025 24.408 122.622 24.1627 123.22 23.896C123.817 23.6293 124.372 23.3627 124.884 23.096C125.268 22.8933 125.572 22.7013 125.796 22.52C126.02 22.328 126.185 22.136 126.292 21.944C126.409 21.7413 126.484 21.528 126.516 21.304C126.548 21.08 126.564 20.8347 126.564 20.568V20.424H122.132V19.464H132.116V20.424H127.7V20.568C127.7 20.8347 127.71 21.08 127.732 21.304C127.764 21.528 127.833 21.7413 127.94 21.944C128.057 22.136 128.228 22.328 128.452 22.52C128.676 22.7013 128.98 22.8933 129.364 23.096C129.876 23.3627 130.425 23.6293 131.012 23.896C131.598 24.152 132.19 24.392 132.788 24.616L132.308 25.496C131.7 25.2613 131.113 25.016 130.548 24.76C129.993 24.504 129.481 24.2587 129.012 24.024ZM133.844 26.968V27.944H127.7V33.176H126.564V27.944H120.404V26.968H133.844ZM143.574 23.448V18.856H144.694V32.456H143.574V24.472H140.902V23.448H143.574ZM138.022 19.72H139.158V23C139.158 23.384 139.169 23.7147 139.19 23.992C139.222 24.2587 139.276 24.504 139.35 24.728C139.425 24.952 139.526 25.1707 139.654 25.384C139.782 25.5973 139.948 25.832 140.15 26.088C140.417 26.4293 140.737 26.808 141.11 27.224C141.494 27.64 141.916 28.072 142.374 28.52L141.622 29.256C141.217 28.8507 140.828 28.44 140.454 28.024C140.092 27.608 139.772 27.2453 139.494 26.936C139.249 26.6587 139.046 26.408 138.886 26.184C138.737 25.9493 138.646 25.7893 138.614 25.704H138.598C138.577 25.7893 138.497 25.9387 138.358 26.152C138.22 26.3653 138.028 26.6213 137.782 26.92C137.484 27.272 137.142 27.6507 136.758 28.056C136.385 28.4613 135.942 28.92 135.43 29.432L134.662 28.68C134.897 28.456 135.132 28.2267 135.366 27.992C135.612 27.7467 135.836 27.512 136.038 27.288C136.252 27.064 136.444 26.8507 136.614 26.648C136.796 26.4453 136.95 26.264 137.078 26.104C137.27 25.8587 137.425 25.6293 137.542 25.416C137.67 25.192 137.766 24.9627 137.83 24.728C137.905 24.4933 137.953 24.2373 137.974 23.96C138.006 23.6827 138.022 23.3627 138.022 23V19.72ZM147.558 33.176H146.438V18.552H147.558V33.176ZM151.433 22.872C151.433 22.3493 151.561 21.88 151.817 21.464C152.073 21.0373 152.419 20.6747 152.857 20.376C153.294 20.0773 153.801 19.848 154.377 19.688C154.963 19.5173 155.587 19.432 156.249 19.432C156.899 19.432 157.513 19.5173 158.089 19.688C158.675 19.848 159.187 20.0773 159.625 20.376C160.073 20.6747 160.425 21.0373 160.681 21.464C160.937 21.88 161.065 22.3493 161.065 22.872V23.656C161.065 24.2213 160.915 24.728 160.617 25.176C160.318 25.624 159.918 25.9973 159.417 26.296V30.136H162.969V31.112H149.529V30.136H153.081V26.296C152.569 25.9973 152.163 25.6293 151.865 25.192C151.577 24.744 151.433 24.232 151.433 23.656V22.872ZM156.249 20.472C155.726 20.472 155.241 20.536 154.793 20.664C154.345 20.7813 153.955 20.9467 153.625 21.16C153.294 21.3733 153.033 21.6293 152.841 21.928C152.649 22.2267 152.553 22.5573 152.553 22.92V23.608C152.553 23.9707 152.649 24.3013 152.841 24.6C153.033 24.8987 153.294 25.16 153.625 25.384C153.955 25.5973 154.345 25.7627 154.793 25.88C155.241 25.9973 155.726 26.056 156.249 26.056C156.761 26.056 157.241 25.9973 157.689 25.88C158.147 25.7627 158.542 25.5973 158.873 25.384C159.203 25.16 159.465 24.8987 159.657 24.6C159.849 24.3013 159.945 23.9707 159.945 23.608V22.92C159.945 22.5573 159.849 22.2267 159.657 21.928C159.465 21.6293 159.203 21.3733 158.873 21.16C158.542 20.9467 158.147 20.7813 157.689 20.664C157.241 20.536 156.761 20.472 156.249 20.472ZM156.249 27.096C155.875 27.096 155.518 27.0693 155.177 27.016C154.835 26.9627 154.51 26.888 154.201 26.792V30.136H158.297V26.792C157.987 26.8987 157.657 26.9787 157.305 27.032C156.963 27.0747 156.611 27.096 156.249 27.096Z" fill="#64748B"/>
</svg>
